# xmcd
#
# Track frame offsets: 
#        150
#        20785
#        38797
#        68375
#
# Disc length: 1237 seconds
#
# Revision: 3
# Processed by: cddbd v1.5.2PL0 Copyright (c) Steve Scherf et al.
# Submitted via: ExactAudioCopy v0.99pb4
#
DISCID=2a04d304
DTITLE=Jon Secada - Do you believe in us (Remixes)
DYEAR=1900
DGENRE=
TTITLE0=Do you believe in us (Musto Mix
TTITLE1=Do you believe in us (LP Version)
TTITLE2=Just another day (Musto Mix)
TTITLE3=Otra Dia Mas Sin Verte
EXTD=Maxi CD
EXTT0=
EXTT1=
EXTT2=
EXTT3=
PLAYORDER=
